<svg xmlns="http://www.w3.org/2000/svg" width="1200" height="420" viewBox="0 0 1200 420" role="img" aria-labelledby="title desc">
<title id="title">AIDE Framework</title><desc id="desc">The Git Service carries shared context and handoffs between humans and independent agents.</desc>
<rect x="1" y="1" width="1198" height="418" rx="16" fill="#ffffff" stroke="#dfe1e6"/>
<g font-family="Inter,Arial,Helvetica,sans-serif">
<path d="M48 54H73" stroke="#e52349" stroke-width="4"/>
<text x="86" y="61" fill="#5e626b" font-size="18" letter-spacing="2">OPEN FRAMEWORK</text>
<text x="48" y="157" fill="#14171b" font-size="66" font-weight="700" letter-spacing="-2.4">AIDE Framework</text>
<text x="48" y="216" fill="#14171b" font-size="26">Humans and agents.</text>
<text x="48" y="253" fill="#5e626b" font-size="24">Shared context and confirmed handoffs.</text>
<path d="M688 48V306" stroke="#dfe1e6"/>
<path d="M796 144V181H944V214M944 144V214M1092 144V181H944" stroke="#5e626b" stroke-width="2" fill="none"/>
<rect x="736" y="88" width="120" height="56" rx="8" fill="#f6f7f9" stroke="#dfe1e6"/><text x="796" y="123" text-anchor="middle" fill="#14171b" font-size="20" font-weight="600">Human</text>
<rect x="884" y="88" width="120" height="56" rx="8" fill="#f6f7f9" stroke="#dfe1e6"/><text x="944" y="123" text-anchor="middle" fill="#14171b" font-size="20" font-weight="600">Agent A</text>
<rect x="1032" y="88" width="120" height="56" rx="8" fill="#f6f7f9" stroke="#dfe1e6"/><text x="1092" y="123" text-anchor="middle" fill="#14171b" font-size="20" font-weight="600">Agent B</text>
<circle cx="944" cy="181" r="5" fill="#e52349"/>
<rect x="788" y="214" width="312" height="92" rx="10" fill="#f6f7f9" stroke="#dfe1e6"/>
<rect x="788" y="236" width="3" height="48" fill="#e52349"/>
<text x="944" y="252" text-anchor="middle" fill="#14171b" font-size="27" font-weight="700">Git Service</text>
<text x="944" y="283" text-anchor="middle" fill="#5e626b" font-size="20">Shared workspace</text>
<path d="M48 340H1152" stroke="#dfe1e6"/>
<text x="48" y="382" fill="#5e626b" font-size="18">Documentation + templates / v0.1</text>
<text x="1152" y="382" text-anchor="end" fill="#5e626b" font-size="17">Originated at Alpha Health AI</text>
</g></svg>
