<svg xmlns="http://www.w3.org/2000/svg" width="1000" height="600" viewBox="0 0 1000 600" role="img" aria-labelledby="title desc"><title id="title">People and agents. Shared records.</title><desc id="desc">People and their agents coordinate through the Git Service.</desc>
<rect width="1000" height="600" rx="16" fill="#ffffff"/>
<g font-family="Inter,Arial,Helvetica,sans-serif">
<text x="40" y="54" font-size="30" font-weight="700" text-anchor="start" fill="#14171b">People and agents. Shared records.</text>
<text x="40" y="88" font-size="20" font-weight="400" text-anchor="start" fill="#5e626b">People and their agents coordinate through the Git Service.</text>
<path d="M40 112 L960 112" fill="none" stroke="#dfe1e6" stroke-width="2"/>
<rect x="40" y="150" width="305" height="100" rx="10" fill="#f6f7f9" stroke="#dfe1e6"/>
<text x="62" y="187" font-size="24" font-weight="700" text-anchor="start" fill="#14171b">Human contributor</text>
<text x="62" y="222" font-size="21" font-weight="400" text-anchor="start" fill="#5e626b">Git client or web editor</text>
<path d="M367 190 L477 190" fill="none" stroke="#e52349" stroke-width="2"/>
<path d="M477 190 L468.4747547794049 195.22687228930658" fill="none" stroke="#e52349" stroke-width="2"/>
<path d="M477 190 L468.4747547794049 184.77312771069342" fill="none" stroke="#e52349" stroke-width="2"/>
<path d="M477 212 L367 212" fill="none" stroke="#5e626b" stroke-width="2"/>
<path d="M367 212 L375.5252452205951 206.77312771069342" fill="none" stroke="#5e626b" stroke-width="2"/>
<path d="M367 212 L375.5252452205951 217.22687228930658" fill="none" stroke="#5e626b" stroke-width="2"/>
<rect x="40" y="275" width="305" height="100" rx="10" fill="#f6f7f9" stroke="#dfe1e6"/>
<text x="62" y="312" font-size="24" font-weight="700" text-anchor="start" fill="#14171b">Agent / Claude</text>
<text x="62" y="347" font-size="21" font-weight="400" text-anchor="start" fill="#5e626b">Private conversation</text>
<path d="M367 315 L477 315" fill="none" stroke="#e52349" stroke-width="2"/>
<path d="M477 315 L468.4747547794049 320.2268722893066" fill="none" stroke="#e52349" stroke-width="2"/>
<path d="M477 315 L468.4747547794049 309.7731277106934" fill="none" stroke="#e52349" stroke-width="2"/>
<path d="M477 337 L367 337" fill="none" stroke="#5e626b" stroke-width="2"/>
<path d="M367 337 L375.5252452205951 331.7731277106934" fill="none" stroke="#5e626b" stroke-width="2"/>
<path d="M367 337 L375.5252452205951 342.2268722893066" fill="none" stroke="#5e626b" stroke-width="2"/>
<rect x="40" y="400" width="305" height="100" rx="10" fill="#f6f7f9" stroke="#dfe1e6"/>
<text x="62" y="437" font-size="24" font-weight="700" text-anchor="start" fill="#14171b">Agent / Codex</text>
<text x="62" y="472" font-size="21" font-weight="400" text-anchor="start" fill="#5e626b">Private conversation</text>
<path d="M367 440 L477 440" fill="none" stroke="#e52349" stroke-width="2"/>
<path d="M477 440 L468.4747547794049 445.2268722893066" fill="none" stroke="#e52349" stroke-width="2"/>
<path d="M477 440 L468.4747547794049 434.7731277106934" fill="none" stroke="#e52349" stroke-width="2"/>
<path d="M477 462 L367 462" fill="none" stroke="#5e626b" stroke-width="2"/>
<path d="M367 462 L375.5252452205951 456.7731277106934" fill="none" stroke="#5e626b" stroke-width="2"/>
<path d="M367 462 L375.5252452205951 467.2268722893066" fill="none" stroke="#5e626b" stroke-width="2"/>
<rect x="500" y="150" width="460" height="350" rx="10" fill="#f6f7f9" stroke="#e52349"/>
<text x="522" y="187" font-size="24" font-weight="700" text-anchor="start" fill="#14171b">Git Service</text>
<text x="526" y="242" font-size="23" font-weight="600" text-anchor="start" fill="#14171b">Start together</text>
<text x="526" y="273" font-size="21" font-weight="400" text-anchor="start" fill="#5e626b">Context, roles and routing</text>
<text x="526" y="338" font-size="23" font-weight="600" text-anchor="start" fill="#14171b">Exchange work</text>
<text x="526" y="369" font-size="21" font-weight="400" text-anchor="start" fill="#5e626b">Messages, requests and replies</text>
<text x="526" y="434" font-size="23" font-weight="600" text-anchor="start" fill="#14171b">Confirm delivery</text>
<text x="526" y="465" font-size="21" font-weight="400" text-anchor="start" fill="#5e626b">Receipts and sender verification</text>
<path d="M40 539 L960 539" fill="none" stroke="#dfe1e6" stroke-width="2"/>
<text x="40" y="573" font-size="19" font-weight="400" text-anchor="start" fill="#5e626b">Conceptual flow. Each client needs its own tested Git access.</text>
</g></svg>
